<svg version="1.1" xmlns="http://www.w3.org/2000/svg" xmlns:xlink="http://www.w3.org/1999/xlink" width="12.51873" height="18.21847" viewBox="0,0,12.51873,18.21847"><g transform="translate(-233.74064,-170.89077)"><g data-paper-data="{&quot;isPaintingLayer&quot;:true}" fill-rule="nonzero" stroke-linejoin="miter" stroke-miterlimit="10" stroke-dasharray="" stroke-dashoffset="0" style="mix-blend-mode: normal"><g><path d="M245.41921,179.15807l0.29253,-0.45966c-4.4164,7.51626 -6.30523,-8.93798 -10.84254,-2.52663l0.31191,-0.44228" fill="none" stroke="#ff0000" stroke-width="1" stroke-linecap="round"/><g fill="#ffffff" stroke="none" stroke-width="0" stroke-linecap="butt"><path d="M236.88101,186.49778v-15.11111h1.99779v15.11111z"/><path d="M238.84235,171.33521c0,0 -0.00773,14.12115 0,14.59259c0.01442,0.87847 0.47352,0.88084 0.47352,0.88084c0,0 -2.63998,0.00805 -2.87036,0.00805c-0.17272,0 0.348,0.15062 0.39904,-0.96296c0.04575,-5.89687 0,-14.51852 0,-14.51852z" data-paper-data="{&quot;index&quot;:null}"/><path d="M236.84456,186.37908c0,0 0.04575,-8.62164 0,-14.51852c-0.05104,-1.11359 -0.57175,-0.96296 -0.39904,-0.96296c0.23038,0 2.87036,0.00806 2.87036,0.00806c0,0 -0.45911,0.00236 -0.47352,0.88083c-0.00773,0.47144 0,14.59259 0,14.59259z" data-paper-data="{&quot;index&quot;:null}"/></g><path d="M234.47603,179.55704l-0.23539,0.3549c4.4164,-7.51626 6.30523,8.93798 10.84254,2.52663l-0.36905,0.49943" data-paper-data="{&quot;index&quot;:null}" fill="none" stroke="#ff0000" stroke-width="1" stroke-linecap="round"/><g fill="#ffffff" stroke="none" stroke-width="0" stroke-linecap="butt"><path d="M240.40482,188.7835v-15.11111h1.99779v15.11111z"/><path d="M242.36616,173.62093c0,0 -0.00774,14.12115 0,14.59259c0.01441,0.87847 0.47352,0.88083 0.47352,0.88083c0,0 -2.63997,0.00806 -2.87035,0.00806c-0.17272,0 0.348,0.15062 0.39903,-0.96296c0.04575,-5.89687 0,-14.51852 0,-14.51852z" data-paper-data="{&quot;index&quot;:null}"/><path d="M240.36837,188.66479c0,0 0.04575,-8.62164 0,-14.51852c-0.05104,-1.11359 -0.57175,-0.96296 -0.39903,-0.96296c0.23038,0 2.87035,0.00805 2.87035,0.00805c0,0 -0.45911,0.00237 -0.47352,0.88084c-0.00774,0.47144 0,14.59259 0,14.59259z" data-paper-data="{&quot;index&quot;:null}"/></g><path d="M245.46683,179.15807l0.29253,-0.45966c-2.39905,4.08294 -4.05226,1.09262 -5.78931,-1.46347" fill="none" stroke="#ff0000" stroke-width="1" stroke-linecap="round"/></g></g></g></svg>