<svg version="1.1" xmlns="http://www.w3.org/2000/svg" xmlns:xlink="http://www.w3.org/1999/xlink" width="16.05556" height="16.05556" viewBox="0,0,16.05556,16.05556"><g transform="translate(-231.97222,-171.97222)"><g data-paper-data="{&quot;isPaintingLayer&quot;:true}" fill-rule="nonzero" stroke-linejoin="miter" stroke-miterlimit="10" stroke-dasharray="" stroke-dashoffset="0" style="mix-blend-mode: normal"><path d="M231.97222,188.02778v-16.05556h16.05556v16.05556z" fill="#000000" stroke="none" stroke-width="0" stroke-linecap="butt"/><path d="M245.3372,179.28067l0.22098,-0.49803c-3.25054,8.08905 -7.56332,-7.90188 -11.0976,-0.88751l0.24273,-0.48371" fill="none" stroke="#ff0000" stroke-width="1" stroke-linecap="round"/><g fill="#ffffff" stroke="none" stroke-width="0" stroke-linecap="butt"><path d="M238.64687,176.6672c-0.00098,3.32298 -0.00128,7.01359 0.00214,7.23408c0.01172,0.75582 0.65576,0.75785 0.65576,0.75785c0,0 -2.64227,0.00693 -2.82951,0.00693c-0.14038,0 0.50859,0.12959 0.55007,-0.82851c0.01623,-2.21412 0.01829,-4.87474 0.01546,-7.17044c-0.00365,-2.96478 1.6069,-2.79002 1.60608,0.0001z" data-paper-data="{&quot;index&quot;:null}"/><path d="M237.02532,184.28955c0,0 0.03718,-4.66466 0,-9.7382c-0.04148,-0.95811 -0.73559,-0.82851 -0.59521,-0.82851c0.18724,0 2.82951,0.00693 2.82951,0.00693c0,0 -0.5989,0.00203 -0.61061,0.75785c-0.00628,0.40562 0,9.80193 0,9.80193z" data-paper-data="{&quot;index&quot;:null}"/></g><path d="M234.57478,181.30124l-0.18005,0.38593c3.25054,-8.08905 7.56332,7.90188 11.09761,0.88751l-0.29074,0.54872" data-paper-data="{&quot;index&quot;:null}" fill="none" stroke="#ff0000" stroke-width="1" stroke-linecap="round"/><g fill="#ffffff" stroke="none" stroke-width="0" stroke-linecap="butt"><path d="M242.70242,178.27831c-0.00098,3.32298 -0.00128,7.01359 0.00214,7.23408c0.01172,0.75582 0.65576,0.75785 0.65576,0.75785c0,0 -2.64227,0.00693 -2.82951,0.00693c-0.14038,0 0.50859,0.12959 0.55007,-0.82851c0.01623,-2.21412 0.01829,-4.87474 0.01546,-7.17044c-0.00365,-2.96478 1.6069,-2.79002 1.60608,0.0001z" data-paper-data="{&quot;index&quot;:null}"/><path d="M241.08087,185.90066c0,0 0.03718,-4.66466 0,-9.7382c-0.04148,-0.95811 -0.73559,-0.82851 -0.59521,-0.82851c0.18724,0 2.82951,0.00693 2.82951,0.00693c0,0 -0.5989,0.00203 -0.61061,0.75785c-0.00628,0.40562 0,9.80193 0,9.80193z" data-paper-data="{&quot;index&quot;:null}"/></g><path d="M245.38429,179.27359l0.22099,-0.49802c-1.76574,4.39408 -3.84493,1.68261 -5.94251,-0.587" fill="none" stroke="#ff0000" stroke-width="1" stroke-linecap="round"/></g></g></svg>