<svg version="1.1" xmlns="http://www.w3.org/2000/svg" xmlns:xlink="http://www.w3.org/1999/xlink" width="18.4" height="18.4" viewBox="0,0,18.4,18.4"><g transform="translate(-230.8,-170.8)"><g data-paper-data="{&quot;isPaintingLayer&quot;:true}" fill-rule="nonzero" stroke-linejoin="miter" stroke-miterlimit="10" stroke-dasharray="" stroke-dashoffset="0" style="mix-blend-mode: normal"><path d="M230.8,180c0,-5.08102 4.11898,-9.2 9.2,-9.2c5.08102,0 9.2,4.11898 9.2,9.2c0,5.08102 -4.11898,9.2 -9.2,9.2c-5.08102,0 -9.2,-4.11898 -9.2,-9.2z" fill="#000000" stroke="none" stroke-width="0" stroke-linecap="butt"/><path d="M245.3372,179.064l0.22098,-0.49803c-3.25054,8.08905 -7.56332,-7.90188 -11.0976,-0.88751l0.24273,-0.48371" fill="none" stroke="#ff0000" stroke-width="1" stroke-linecap="round"/><g fill="#ffffff" stroke="none" stroke-width="0" stroke-linecap="butt"><path d="M238.77306,176.09596c-0.00121,3.86223 -0.00158,8.15176 0.00263,8.40803c0.01442,0.87847 0.47352,0.88083 0.47352,0.88083c0,0 -2.63997,0.00806 -2.87035,0.00806c-0.17272,0 0.348,0.15062 0.39903,-0.96296c0.01997,-2.57343 0.0225,-5.66581 0.01902,-8.33406c-0.00449,-3.4459 1.97715,-3.24279 1.97614,0.00011z" data-paper-data="{&quot;index&quot;:null}"/><path d="M236.77789,184.95527c0,0 0.04575,-5.42164 0,-11.31852c-0.05104,-1.11359 -0.57175,-0.96296 -0.39903,-0.96296c0.23038,0 2.87035,0.00806 2.87035,0.00806c0,0 -0.45911,0.00236 -0.47352,0.88083c-0.00773,0.47144 0,11.39259 0,11.39259z" data-paper-data="{&quot;index&quot;:null}"/></g><path d="M234.57478,181.08457l-0.18005,0.38593c3.25054,-8.08905 7.56332,7.90188 11.09761,0.88751l-0.29074,0.54872" data-paper-data="{&quot;index&quot;:null}" fill="none" stroke="#ff0000" stroke-width="1" stroke-linecap="round"/><g fill="none" stroke="none" stroke-width="1" stroke-linecap="butt" font-family="sans-serif" font-weight="normal" font-size="12" text-anchor="start"/><g fill="#ffffff" stroke="none" stroke-width="0" stroke-linecap="butt"><path d="M242.83973,178.0293c-0.00121,3.86223 -0.00158,8.15176 0.00263,8.40803c0.01442,0.87847 0.47352,0.88083 0.47352,0.88083c0,0 -2.63997,0.00806 -2.87035,0.00806c-0.17272,0 0.348,0.15062 0.39903,-0.96296c0.01997,-2.57343 0.0225,-5.66581 0.01902,-8.33406c-0.00449,-3.4459 1.97715,-3.24279 1.97614,0.00011z" data-paper-data="{&quot;index&quot;:null}"/><path d="M240.84456,186.8886c0,0 0.04575,-5.42164 0,-11.31852c-0.05104,-1.11359 -0.57175,-0.96296 -0.39903,-0.96296c0.23038,0 2.87035,0.00806 2.87035,0.00806c0,0 -0.45911,0.00236 -0.47352,0.88083c-0.00773,0.47144 0,11.39259 0,11.39259z" data-paper-data="{&quot;index&quot;:null}"/></g><path d="M245.38429,179.05692l0.22099,-0.49802c-1.76574,4.39408 -3.84493,1.68261 -5.94251,-0.587" fill="none" stroke="#ff0000" stroke-width="1" stroke-linecap="round"/></g></g></svg>